<svg width="60" height="50" viewBox="0 0 60 50" fill="none" xmlns="http://www.w3.org/2000/svg">
<path d="M36.5487 50L48.9105 15.28L50.4632 16.0275L50.4441 16.567L39.0993 48.5621H54.4999C55.1199 47.2152 55.6284 45.6363 56.0241 44.1998C58.9949 33.3839 59.6176 15.6032 52.2389 6.55553C46.992 0.124634 38.4413 -0.315294 32.448 5.33825C30.3079 7.35707 32.1367 8.17286 33.2951 10.1618C37.1415 16.7664 39.2421 26.5857 37.1891 34.1328C34.4249 44.2924 25.5751 44.3479 22.7185 34.1797C20.645 26.8049 22.6505 17.3188 26.2454 10.7569C26.7267 9.87704 28.1638 8.12873 28.3977 7.46528C28.5486 7.03674 28.5921 6.67227 28.4031 6.24373C28.3365 6.0914 26.2467 4.31603 25.9408 4.0982C19.6797 -0.335226 12.0236 0.761031 7.31925 6.96413C0.318491 16.1969 0.934405 33.2828 3.83994 44.0859C4.23832 45.5651 4.63533 47.3006 5.45247 48.5621H20.6573L9.30839 16.1684C9.18603 15.7057 10.4872 15.6644 10.7523 15.3071L23.4037 50H4.07924C2.42048 46.744 1.54216 42.7889 0.899055 39.1542C-1.28724 26.8064 -0.436108 3.80065 14.4084 0.417917C20.5322 -0.978741 25.6077 1.22089 29.9776 5.58883C35.7125 -0.748101 45.0586 -2.09208 51.6583 3.67109C60.2566 11.1812 60.9609 26.9914 59.2505 37.7162C58.5911 41.8507 57.5673 46.2058 55.8745 50L36.5487 50ZM29.7872 8.29672C24.7892 15.2216 22.3718 25.7656 24.6369 34.2253C26.9238 42.769 33.2339 42.2209 35.3563 33.858C37.0708 27.1039 35.5929 18.1915 32.4616 12.0624C32.1639 11.4801 30.2821 8.17001 29.7872 8.29672Z" fill="black"/>
</svg>
