<svg width="60" height="50" viewBox="0 0 60 50" fill="none" xmlns="http://www.w3.org/2000/svg">
<path d="M29.517 20.0507C29.8272 20.312 30.3226 20.3377 30.5868 19.9708C32.9417 14.2642 35.9097 7.50825 40.2447 3.37787C50.0146 -5.92798 60.7006 5.6822 59.9639 18.079C59.4111 27.4092 56.7217 37.4803 55.9879 46.8946C55.7438 48.4965 54.766 49.7087 53.287 49.8557C48.6332 50.3169 43.3836 49.4931 38.6666 49.8514C37.258 49.663 36.6061 48.1225 36.9407 46.6762C38.7097 41.6378 40.6252 36.6536 42.3224 31.5838C43.0835 29.308 45.2244 23.7442 45.032 21.5912C44.8956 20.0579 43.8732 18.8257 42.5292 19.8451C40.3682 21.4827 38.1956 29.9048 37.0929 32.943C35.8465 36.3752 34.0846 41.5935 32.4893 44.6845C31.2961 46.996 28.8149 46.916 27.5613 44.6902C26.1742 40.8483 24.5186 37.1291 23.1201 33.2942C21.9268 30.0219 20.0501 22.525 18.093 20.2677C16.8265 18.8072 15.2987 19.2226 15.0374 21.2557C14.7329 23.6371 17.4798 30.7486 18.3629 33.3442C19.8677 37.7687 21.5463 42.1246 23.0856 46.5348C23.4963 48.3452 22.5629 49.6929 20.9217 49.8557C16.469 50.2954 11.4476 49.5116 6.93168 49.8486C5.39095 49.5859 4.4332 48.5908 4.06561 46.8989L0.0910276 18.079C-1.174 5.07256 11.001 -6.52334 20.7637 4.24734C24.6019 8.48194 27.3531 14.5897 29.517 20.0507Z" fill="black"/>
</svg>
