<svg width="59" height="50" viewBox="0 0 59 50" fill="none" xmlns="http://www.w3.org/2000/svg">
<path d="M0 0.00379736C14.6927 -0.18326 27.4676 11.2106 29.2198 25.5787C29.2774 25.9954 29.2229 26.4173 29.2397 26.8351C29.247 27.0304 29.1191 27.4264 29.4001 27.39V0.00379736C40.9335 -0.189495 51.8775 7.01324 56.4189 17.4115C60.3658 26.4464 58.5423 39.3741 58.7919 49.2923C58.7982 49.5635 58.8443 49.7599 58.9617 50H40.0841L39.843 49.761V41.7996C39.843 41.2987 38.5354 40.484 37.9975 40.4435C37.492 40.405 37.9157 40.617 37.9157 40.6856V50H20.8856C20.8427 49.8826 21.0461 49.8098 21.0461 49.761V42.2777C21.0461 41.6437 19.7301 40.3084 19.0412 40.4455C18.6794 40.5183 18.9573 40.8238 18.9573 40.8446V49.761L18.7172 50H0V0.00379736Z" fill="black"/>
</svg>
