<svg width="488" height="192" viewBox="0 0 488 192" fill="none" xmlns="http://www.w3.org/2000/svg">
<g clip-path="url(#clip0_1_3)">
<path d="M337.09 6.7C337.09 2.64 340.16 0 344.78 0C349.4 0 352.47 2.64 352.47 6.7C352.47 10.76 349.39 13.4 344.78 13.4C340.17 13.4 337.09 10.76 337.09 6.7ZM90.48 6.7C90.48 2.64 93.55 0 98.17 0C102.79 0 105.86 2.64 105.86 6.7C105.86 10.76 102.79 13.4 98.17 13.4C93.55 13.4 90.48 10.76 90.48 6.7ZM265.32 153.72C264.17 144.75 257.53 138.79 247.27 138.79C237.86 138.79 231.49 143.81 229.61 153.72H265.31H265.32ZM338.4 21.52H351.14V82.13H338.4V21.52ZM91.79 21.52H104.53V82.13H91.79V21.52ZM162.61 50.29C162.61 37.55 155.25 29.87 144.05 29.87C132.85 29.87 125.93 37.56 125.93 50.29C125.93 63.02 132.85 70.82 144.05 70.82C155.25 70.82 162.61 63.02 162.61 50.29ZM272.41 51.83C272.41 38.98 265.05 30.97 253.85 30.97C242.65 30.97 235.73 38.99 235.73 51.83C235.73 64.67 242.65 72.47 253.85 72.47C265.05 72.47 272.41 64.67 272.41 51.83ZM409.23 51.83C409.23 38.98 402.09 30.97 390.89 30.97C379.69 30.97 372.55 38.99 372.55 51.83C372.55 64.67 379.8 72.69 391 72.69C402.2 72.69 409.23 64.67 409.23 51.83ZM299.97 58.3V31.62H291.63V21.52H299.97V10.43L312.93 7.68V21.52H330.28V31.62H312.93V56.43C312.93 68.4 315.78 72.46 324.57 72.46C326.54 72.46 328.19 72.24 329.84 71.91L331.6 82.12C328.96 82.67 326.11 83 322.81 83C307.66 83 299.97 76.19 299.97 58.29M155.81 175.68L166.9 172.61C169.53 178.21 175.68 180.96 184.25 180.96C193.58 180.96 198.52 178.65 198.52 173.16C198.52 160.09 158.11 172.5 158.11 146.26C158.11 135.83 169.31 128.8 183.36 128.8C195.22 128.8 206.31 134.18 209.6 143.18L198.51 146.14C196.42 141.53 190.6 139.22 184.02 139.22C175.68 139.22 170.63 141.42 170.63 146.47C170.63 159.32 211.48 146.8 211.48 172.82C211.48 184.46 201.05 191.82 184.69 191.82C170.42 191.82 159.33 185.89 155.81 175.68ZM430.64 21.52H443.38V31.84C446.23 24.7 453.37 20.2 463.25 20.2C479.5 20.2 487.74 29.64 487.74 49.19V82.13H475V50.29C475 37.33 470.39 31.19 459.19 31.19C448.65 31.19 443.38 37.89 443.38 51.83V82.13H430.64V21.52ZM147.79 190.61H135.05V180.29C132.2 187.43 125.06 191.93 115.18 191.93C98.93 191.93 90.69 182.49 90.69 162.94V130H103.43V161.84C103.43 174.8 108.04 180.95 119.24 180.95C129.78 180.95 135.05 174.25 135.05 160.31V130.01H147.79V190.62V190.61ZM342.14 190.61H329.4V180.29C326.55 187.43 319.41 191.93 309.53 191.93C293.28 191.93 285.05 182.49 285.05 162.94V130H297.79V161.84C297.79 174.8 302.4 180.95 313.6 180.95C324.14 180.95 329.41 174.25 329.41 160.31V130.01H342.15V190.62L342.14 190.61ZM229.2 163.82C230.29 175.7 237.17 181.39 248.81 181.39C257.04 181.39 262.31 178.54 265.06 172.5L276.59 174.48C271.65 186.12 261.66 191.94 248.48 191.94C228.93 191.94 216.31 178.98 216.31 160.32C216.31 141.66 229.05 128.7 247.49 128.7C265.93 128.7 277.58 141.66 277.58 160.32V163.83H229.2V163.82ZM353.56 130H366.3V140.54C368.39 133.29 375.3 128.68 384.75 128.68C393.64 128.68 400.01 132.74 402.98 142.51C405.83 133.62 414.07 128.68 425.27 128.68C440.64 128.68 447.12 137.9 447.12 159.86V190.6H434.39V161.06C434.39 146.13 430.66 139.65 420.77 139.65C410.88 139.65 406.39 146.35 406.39 160.84V190.6H393.65V161.17C393.65 145.8 390.25 139.65 380.58 139.65C370.91 139.65 366.31 147.01 366.31 162.05V190.6H353.57V129.99L353.56 130ZM359.71 51.83C359.71 31.63 373.11 20.21 390.89 20.21C408.67 20.21 422.07 31.63 422.07 51.83C422.07 72.03 408.79 83.45 391 83.45C373.21 83.45 359.71 72.03 359.71 51.83ZM222.89 51.83C222.89 30.97 235.41 20.21 250.56 20.21C260.44 20.21 268.57 24.82 272.08 32.51V21.53H284.82V82.14H272.08V71.16C268.57 78.85 260.44 83.46 250.56 83.46C235.41 83.46 222.89 72.7 222.89 51.84M0 113.75H18.34L39.97 176.33L61.71 113.75H79.94V190.61H66.76V134.39L47 190.61H32.73L12.97 134.39V190.61H0V113.75ZM0 5.27H18.34L39.97 67.86L61.71 5.27H79.94V82.13H66.76V25.91L47 82.13H32.73L12.96 25.91V82.13H0V5.27ZM114.41 86.85L126.49 84.11C129.57 90.26 135.82 94.21 144.72 94.21C155.81 94.21 162.29 88.06 162.29 73.68V68.63C159 75.88 151.09 80.38 140.99 80.38C125.62 80.38 113.1 70.28 113.1 50.29C113.1 30.3 125.62 20.2 140.99 20.2C151.09 20.2 159 24.7 162.29 32.06V21.52H175.03V72.03C175.03 94.65 164.27 104.31 144.73 104.31C129.14 104.31 118.6 98.16 114.43 86.85M186.44 21.52H199.18V30.96C201.81 24.37 207.85 20.64 216.2 20.64C217.63 20.64 218.94 20.75 220.48 20.97L219.27 33.16C217.62 32.83 215.98 32.61 214.22 32.61C204.23 32.61 199.18 39.75 199.18 52.49V82.14H186.44V21.52Z" fill="black"/>
</g>
<defs>
<clipPath id="clip0_1_3">
<rect width="487.73" height="191.93" fill="white"/>
</clipPath>
</defs>
</svg>
